<svg xmlns="http://www.w3.org/2000/svg" viewBox="0 0 163.19 171.88"><defs><style>.cls-1{fill:none;stroke:#8fcff9;stroke-miterlimit:10;stroke-width:10px;}</style></defs><title>lodging</title><g id="Layer_2" data-name="Layer 2"><g id="Layer_2-2" data-name="Layer 2"><path class="cls-1" d="M5.83,71.06,76.07,7.82A9.64,9.64,0,0,1,89.82,8L157.4,71.09a2.83,2.83,0,0,1-2,4.79H7.83A2.82,2.82,0,0,1,5.83,71.06Z"/><path class="cls-1" d="M21,75.88H144a0,0,0,0,1,0,0v80.33a10.67,10.67,0,0,1-10.67,10.67H31.67A10.67,10.67,0,0,1,21,156.22V75.88A0,0,0,0,1,21,75.88Z"/><path class="cls-1" d="M78.51,124.88h6a7.5,7.5,0,0,1,7.5,7.5v34.5a0,0,0,0,1,0,0H71a0,0,0,0,1,0,0v-34.5A7.5,7.5,0,0,1,78.51,124.88Z"/></g></g></svg>