<svg xmlns="http://www.w3.org/2000/svg" viewBox="0 0 148.03 132.37"><defs><style>.cls-1{fill:#eee;}.cls-2,.cls-3{fill:none;stroke:#eee;stroke-miterlimit:10;stroke-width:3.24px;}.cls-3{stroke-linecap:round;}</style></defs><title>potato</title><g id="Layer_2" data-name="Layer 2"><g id="Layer_23" data-name="Layer 23"><circle class="cls-1" cx="63.1" cy="61.95" r="4.96"/><circle class="cls-1" cx="95.25" cy="76.8" r="4.96"/><ellipse class="cls-2" cx="72.92" cy="83.64" rx="5.67" ry="8.14" transform="translate(-32.95 116.88) rotate(-66.35)"/><path class="cls-3" d="M69,88.12c-4.23,8.24-8.88,10.77-14.25,3.42"/><path class="cls-3" d="M71,89.77c-3.19,8.69-1.9,13.83,7.15,12.79"/><path class="cls-3" d="M115,51a4.3,4.3,0,0,0,6.08.43c4.93-4.27,12.29-7.81,19.29-10.5,3.32-1.27,6,.52,6,4.08.07,21.44-20.37,62.91-38.62,71.74-9,4.35-26.18-.43-29.61-1.45a3.34,3.34,0,0,0-1.26-.11c-6.68.42-26.48-8.22-30.27-13.16a3.57,3.57,0,0,0-1-1C42.36,99,27.43,89.73,24.55,80.24c-5.93-19.53,11-63.15,26.87-77.33C53.84.75,56.75,1.35,58,4.36c2.81,7,5.28,14.88,5.55,21.49a4.49,4.49,0,0,0,4.62,4.41C84.84,29.29,104.62,38.51,115,51Z"/><line class="cls-3" x1="100.27" y1="100.65" x2="137.12" y2="120.65"/><line class="cls-3" x1="96.05" y1="104.98" x2="127.47" y2="130.34"/><line class="cls-3" x1="41.89" y1="75.08" x2="2.19" y2="61.56"/><line class="cls-3" x1="41.56" y1="81.12" x2="1.62" y2="75.22"/><ellipse class="cls-2" cx="56.63" cy="116.3" rx="4.43" ry="4.46" transform="translate(-66.15 157.02) rotate(-82.39)"/><path class="cls-2" d="M55.44,112.13c-1-2.08-5.48-8.39-9.84-10.12a5.81,5.81,0,0,0-6.83,2.49,26.52,26.52,0,0,0-2.9,7.2c-.3,1.94.09,5,3.42,5.79,4.78,1.1,10.56,1.06,13.63,1.11"/><path class="cls-2" d="M58.38,120.47c1,2.07,6.28,7.86,10.21,9.7,2.94,1.06,5.32.76,7.13-1.82a18.36,18.36,0,0,0,2.81-6.8c.38-2,.8-5.45-4-6.49s-10.22-1.39-13.38-.68"/></g></g></svg>