<?xml version="1.0" encoding="UTF-8" standalone="no"?>
<!-- Generator: Adobe Illustrator 22.1.0, SVG Export Plug-In . SVG Version: 6.00 Build 0)  -->

<svg
   xmlns:i="&amp;#38;#38;ns_ai;"
   xmlns:dc="http://purl.org/dc/elements/1.1/"
   xmlns:cc="http://creativecommons.org/ns#"
   xmlns:rdf="http://www.w3.org/1999/02/22-rdf-syntax-ns#"
   xmlns:svg="http://www.w3.org/2000/svg"
   xmlns="http://www.w3.org/2000/svg"
   xmlns:sodipodi="http://sodipodi.sourceforge.net/DTD/sodipodi-0.dtd"
   xmlns:inkscape="http://www.inkscape.org/namespaces/inkscape"
   version="1.1"
   x="0px"
   y="0px"
   viewBox="0 0 353.51453 332.37988"
   xml:space="preserve"
   id="svg2"
   inkscape:version="0.91 r13725"
   sodipodi:docname="design.svg"
   width="353.51453"
   height="332.37988"><metadata
     id="metadata341"><rdf:RDF><cc:Work
         rdf:about=""><dc:format>image/svg+xml</dc:format><dc:type
           rdf:resource="http://purl.org/dc/dcmitype/StillImage" /><dc:title /></cc:Work></rdf:RDF></metadata><defs
     id="defs339" /><sodipodi:namedview
     pagecolor="#ffffff"
     bordercolor="#666666"
     borderopacity="1"
     objecttolerance="10"
     gridtolerance="10"
     guidetolerance="10"
     inkscape:pageopacity="0"
     inkscape:pageshadow="2"
     inkscape:window-width="1920"
     inkscape:window-height="1017"
     id="namedview337"
     showgrid="false"
     inkscape:zoom="1.7972297"
     inkscape:cx="112.22094"
     inkscape:cy="165.1169"
     inkscape:window-x="-8"
     inkscape:window-y="-8"
     inkscape:window-maximized="1"
     inkscape:current-layer="svg2"
     fit-margin-top="0"
     fit-margin-left="0"
     fit-margin-right="0"
     fit-margin-bottom="0" /><style
     type="text/css"
     id="style4">
	.st0{fill:none;}
	.st1{fill:#EEEEEE;}
	.st2{fill:none;stroke:#EEEEEE;stroke-width:4.4911;stroke-miterlimit:10;}
	.st3{fill:none;stroke:#EEEEEE;stroke-width:3.943;stroke-miterlimit:10;}
	.st4{fill:none;stroke:#EEEEEE;stroke-width:4;stroke-miterlimit:10;}
	.st5{fill:none;stroke:#EEEEEE;stroke-width:8;stroke-miterlimit:10;}
	.st6{fill:none;stroke:#EEEEEE;stroke-width:8.0255;stroke-miterlimit:10;}
	.st7{fill:none;stroke:#EEEEEE;stroke-width:7;stroke-miterlimit:10;}
	.st8{fill:none;stroke:#EEEEEE;stroke-width:3;stroke-miterlimit:10;}
	.st9{fill:none;stroke:#EEEEEE;stroke-width:4.7333;stroke-miterlimit:10;}
	.st10{fill:none;stroke:#EEEEEE;stroke-width:4.4718;stroke-miterlimit:10;}
	.st11{fill:none;stroke:#EEEEEE;stroke-width:6.8701;stroke-miterlimit:10;}
	.st12{fill:none;stroke:#EEEEEE;stroke-width:4.8697;stroke-miterlimit:10;}
	.st13{fill:none;stroke:#EEEEEE;stroke-width:6.6885;stroke-miterlimit:10;}
	.st14{fill:none;stroke:#EEEEEE;stroke-width:4.7364;stroke-miterlimit:10;}
	.st15{fill:none;stroke:#EEEEEE;stroke-width:5;stroke-miterlimit:10;}
	.st16{fill:none;stroke:#EEEEEE;stroke-width:5;stroke-miterlimit:10;stroke-dasharray:14.3636,14.3636;}
	.st17{fill:none;stroke:#EEEEEE;stroke-width:4.4989;stroke-linecap:round;stroke-miterlimit:10;}
	.st18{fill:none;stroke:#EEEEEE;stroke-width:4.4989;stroke-miterlimit:10;}
	.st19{fill:none;stroke:#EEEEEE;stroke-width:3.6462;stroke-linecap:round;stroke-miterlimit:10;}
	.st20{fill:none;stroke:#EEEEEE;stroke-width:9.6956;stroke-miterlimit:10;}
	.st21{fill:none;stroke:#EEEEEE;stroke-width:10.2342;stroke-miterlimit:10;}
	.st22{fill:none;stroke:#EEEEEE;stroke-width:2;stroke-miterlimit:10;}
	.st23{font-family:'FreestyleScript-Regular';}
	.st24{font-size:32.8572px;}
	.st25{fill:none;stroke:#EEEEEE;stroke-width:4.796;stroke-miterlimit:10;}
	.st26{fill:none;stroke:#EEEEEE;stroke-width:3.9016;stroke-miterlimit:10;}
	.st27{fill:none;stroke:#EEEEEE;stroke-width:4.6481;stroke-miterlimit:10;}
	.st28{fill:none;stroke:#EEEEEE;stroke-width:4.5764;stroke-miterlimit:10;}
	.st29{fill:none;stroke:#EEEEEE;stroke-width:6.8826;stroke-miterlimit:10;}
	.st30{fill:none;stroke:#EEEEEE;stroke-width:3;stroke-linecap:round;stroke-miterlimit:10;}
	.st31{font-size:50.3807px;}
	.st32{fill:none;stroke:#EEEEEE;stroke-width:4;stroke-linecap:round;stroke-miterlimit:10;}
</style><path
     id="path92"
     style="fill:#f69668;fill-opacity:1"
     d="m 0.23939,308.86605 24.3,-25.6 c 0.4,-0.4 1,-0.4 1.3,0 l 2.4,2.5 c 0.4,0.4 0.3,1 -0.1,1.3 l -26.7,23.1 c -0.4,0.3 -1,0.3 -1.3,-0.1 l 0,0 c -0.2,-0.4 -0.2,-0.9 0.1,-1.2 z m 23,22 24.3,-25.6 c 0.4,-0.4 1,-0.4 1.3,0 l 2.4,2.5 c 0.4,0.4 0.3,1 -0.1,1.3 l -26.7,23.1 c -0.4,0.3 -1,0.3 -1.3,-0.1 l 0,0 c -0.2,-0.4 -0.2,-0.9 0.1,-1.2 z m -18.8,-4 39.3,-41.5 c 0.6,-0.6 1.6,-0.6 2.2,0 l 3.8,4.1 c 0.6,0.6 0.5,1.6 -0.1,2.1 l -43.1,37.4 c -0.6,0.5 -1.5,0.5 -2.1,-0.1 l 0,0 c -0.6,-0.5 -0.5,-1.4 0,-2 z m 292.7403,-129.13753 -6.48242,2.27539 11.90039,33.90039 6.48242,-2.27539 -11.90039,-33.90039 z m 31.90625,-26.80274 c -0.9613,-0.10119 -1.76755,0.0615 -2.58203,0.46875 l -0.0879,0.043 -17.38282,9.94727 3.41211,5.96289 15.67383,-8.96875 10.79688,11.43945 -9.91211,14.50976 5.67187,3.875 11,-16.0996 -0.0879,0.12304 c 1.34426,-1.79234 0.80496,-4.21578 -0.0996,-5.42187 l -0.11719,-0.1543 -13.5332,-14.3418 0.25,0.29688 c -0.80953,-1.07937 -2.04066,-1.5785 -3.00195,-1.67969 z m -82.57032,71.24414 c -1.45089,-0.18136 -3.22396,0.33493 -4.36132,1.63477 l 0.22461,-0.23438 -27.56055,26.06446 c -2.79893,2.56568 -2.47479,7.21164 0.625,9.42578 l 0.01,0.008 22.22461,15.64648 c 1.79234,1.34426 4.21579,0.80301 5.42188,-0.10156 l 0.16016,-0.11719 21.37695,-20.26953 0.0312,-0.0312 c 1.47158,-1.47158 1.85947,-4.28891 0.62891,-6.13476 L 250.25,244.38672 l -0.0996,-0.12891 c -0.90697,-1.1661 -2.18387,-1.90653 -3.63477,-2.08789 z m -0.87304,7.77149 13.01758,20.48242 -18.5586,17.59765 -19.9082,-14.01757 25.44922,-24.0625 z M 82.636719,77.65625 c -1.112592,0.05558 -2.229234,0.48314 -3.126953,1.380859 l 0.07227,-0.07031 -21.136719,19.935547 -0.03516,0.03516 c -1.614473,1.614474 -1.917783,3.793284 -0.716797,5.794924 l 0.01758,0.0293 14.427734,23.04492 0.01172,0.0176 c 2.031058,3.15942 6.666141,3.82214 9.417968,1.07031 l 27.531248,-26.0332 -0.25195,0.21679 c 2.74935,-2.13838 2.33672,-6.453943 -0.33789,-8.326171 L 85.791016,78.539062 85.744141,78.507812 C 84.857857,77.916957 83.74931,77.600669 82.636719,77.65625 Z m 0.482422,7.416016 19.830079,14.15039 L 77.447266,123.33789 64.490234,102.64453 83.119141,85.072266 Z m 144.705079,68.880854 -6.16992,3.0254 c 4.85065,9.89152 7.13188,20.73389 6.75195,31.46679 l 6.86523,0.24219 c 0.42008,-11.86709 -2.09791,-23.8259 -7.44726,-34.73438 z m -2.26953,51.81055 c -1.71395,5.61793 -4.19208,11.1418 -7.42188,16.27149 l 5.8125,3.66211 c 3.5702,-5.67032 6.29363,-11.74762 8.17969,-17.92969 l -6.57031,-2.00391 z m -31.96094,39.1875 c -12.5448,6.84262 -26.81029,9.31767 -40.60742,7.50977 l -0.89258,6.81054 c 15.20287,1.9921 30.93582,-0.73168 44.79102,-8.28906 l -3.29102,-6.03125 z M 99.222656,147.65234 c -8.291857,13.32995 -11.963505,28.85039 -10.808594,44.07422 l 6.84961,-0.51953 c -1.045089,-13.77617 2.284826,-27.85573 9.792968,-39.92578 l -5.833984,-3.62891 z m 61.845704,-34.82422 c -12.15282,0.10532 -24.29375,3.20174 -35.21289,9.34376 l 3.36719,5.98828 c 19.76171,-11.11597 44.03602,-11.21325 63.90625,-0.66016 l 3.22265,-6.06836 c -10.96488,-5.82346 -23.13039,-8.70883 -35.2832,-8.60352 z m 148.60937,67.85352 c -1.13029,0 -2.06034,0.44901 -2.76757,1.15625 l 0.0664,-0.0664 -14.10937,13.36914 -74.16797,-12.26367 0.97656,0.31641 c -1.32896,-0.66448 -3.07808,-0.21572 -3.82031,0.31445 -0.74224,0.53017 -1.03424,1.01183 -1.28906,1.52149 l -0.14649,0.29492 -4.18945,15.01953 0.0508,-0.16406 c -0.23104,0.69313 -0.41621,1.6265 0.0879,2.80273 0.5041,1.17623 2.12608,2.21875 3.37109,2.21875 l -1.09375,-0.17773 91.80079,30.79883 -0.44336,-0.1836 c 0.9193,0.45966 2.01534,0.47078 2.76757,0.25586 0.75224,-0.21492 1.24245,-0.54517 1.69727,-1 l 25.93164,-24.5332 -0.82422,0.57617 c 1.32896,-0.66448 2.04883,-2.20369 2.04883,-3.33398 0,-1.1303 -0.44901,-2.05839 -1.15625,-2.76563 l -22.05273,-22.95117 0.5957,0.84375 c -0.66448,-1.32896 -2.20369,-2.04883 -3.33399,-2.04883 z m -0.13867,8.12695 17.92774,18.65625 -22.5,21.28711 -87.35352,-29.31054 2.60742,-9.34961 73.23633,12.10937 0.2832,0 c 0.1,0 1.10883,0.61383 2.82813,-1.10547 l 12.9707,-12.28711 z m -16.20703,6.40625 c 0.0159,-0.002 0.005,0.007 0.0195,0.006 l -0.0215,-0.004 c 4.6e-4,-6e-5 10e-4,-0.002 0.002,-0.002 z m -169.49219,62.51563 c -6.60608,0 -12.03515,5.42907 -12.03515,12.03515 0,6.60609 5.42907,12.03516 12.03515,12.03516 6.60609,0 12.03516,-5.42907 12.03516,-12.03516 0,-6.60608 -5.42907,-12.03515 -12.03516,-12.03515 z m 0,6.87109 c 2.89321,0 5.16407,2.27085 5.16407,5.16406 0,2.89322 -2.27086,5.16602 -5.16407,5.16602 -2.89321,0 -5.16601,-2.2728 -5.16601,-5.16602 0,-2.89321 2.2728,-5.16406 5.16601,-5.16406 z m -26.800778,-28.9707 c -6.606087,0 -12.035155,5.42907 -12.035156,12.03516 10e-7,6.60608 5.429069,12.03515 12.035156,12.03515 6.606088,0 12.035158,-5.42906 12.035158,-12.03515 0,-6.60609 -5.42907,-12.03516 -12.035158,-12.03516 z m 0,6.87109 c 2.893212,0 5.166018,2.27085 5.166018,5.16407 0,2.89321 -2.272806,5.16406 -5.166018,5.16406 -2.89321,0 -5.164062,-2.27085 -5.164062,-5.16406 0,-2.89321 2.270852,-5.16407 5.164062,-5.16407 z M 76.439453,207.63086 c -6.606087,0 -12.035156,5.42907 -12.035156,12.03516 0,6.60608 5.429069,12.03515 12.035156,12.03515 6.606088,0 12.035156,-5.42907 12.035156,-12.03515 0,-6.60609 -5.429068,-12.03516 -12.035156,-12.03516 z m 0,6.87109 c 2.89321,0 5.164062,2.27086 5.164063,5.16407 -10e-7,2.89321 -2.270853,5.16406 -5.164063,5.16406 -2.89321,0 -5.164062,-2.27085 -5.164062,-5.16406 0,-2.89321 2.270852,-5.16407 5.164062,-5.16407 z m 58.599607,19.42969 c -6.60608,0 -12.03515,5.42907 -12.03515,12.03516 0,6.60608 5.42907,12.03515 12.03515,12.03515 6.60609,0 12.03516,-5.42907 12.03516,-12.03515 0,-6.60609 -5.42907,-12.03516 -12.03516,-12.03516 z m 0,6.86914 c 2.89321,0 5.16602,2.27281 5.16602,5.16602 0,2.89321 -2.27281,5.16406 -5.16602,5.16406 -2.89321,0 -5.16406,-2.27085 -5.16406,-5.16406 0,-2.89321 2.27085,-5.16602 5.16406,-5.16602 z m -18.90039,-23.26953 c -6.60609,0 -12.03515,5.42907 -12.03515,12.03516 0,6.60608 5.42906,12.03515 12.03515,12.03515 6.60609,0 12.03516,-5.42907 12.03516,-12.03515 0,-6.60609 -5.42907,-12.03516 -12.03516,-12.03516 z m 0,6.86914 c 2.89321,0 5.16602,2.27281 5.16602,5.16602 0,2.89321 -2.27281,5.16406 -5.16602,5.16406 -2.89321,0 -5.16406,-2.27085 -5.16406,-5.16406 0,-2.89321 2.27085,-5.16602 5.16406,-5.16602 z M 157.4607,66.0806 c -1.62319,1.535816 -1.95693,3.702076 -1.79572,5.482247 0.16121,1.780171 0.74582,3.502061 1.59362,5.321775 1.6956,3.639422 4.52913,7.642791 8.21499,11.538334 3.68586,3.895551 7.52515,6.944606 11.06528,8.83878 1.77007,0.94709 3.45837,1.627402 5.2269,1.886757 1.76854,0.259361 3.94859,0.04444 5.57178,-1.491373 1.62319,-1.535815 1.95828,-3.70066 1.79706,-5.48083 -0.1612,-1.780164 -0.74716,-3.503477 -1.59496,-5.323192 -1.6956,-3.639421 -4.52778,-7.641367 -8.21365,-11.536917 -3.68586,-3.895544 -7.52649,-6.946023 -11.06662,-8.840196 -1.77007,-0.947091 -3.45702,-1.625979 -5.22556,-1.885341 -1.76853,-0.259362 -3.94993,-0.04586 -5.57312,1.489956 z m 5.27546,5.57558 c 0.61319,0.166587 1.28068,0.3413 2.28164,0.876867 2.61577,1.399589 6.05658,4.059505 9.31713,7.505546 3.26055,3.446042 5.72488,7.027199 6.97774,9.716335 0.47951,1.029198 0.61835,1.706569 0.75076,2.328028 -0.61321,-0.166506 -1.28159,-0.342488 -2.28298,-0.878282 -2.61577,-1.39959 -6.05666,-4.056747 -9.31721,-7.502788 -3.26055,-3.446041 -5.7248,-7.029957 -6.97766,-9.719093 -0.47955,-1.029294 -0.61703,-1.705149 -0.74942,-2.326613 z m 0.10368,8.775461 c -5.6672,0 -10.33593,4.66678 -10.33593,10.333984 0,5.667204 4.66873,10.335935 10.33593,10.335935 5.66721,0 10.33399,-4.668731 10.33399,-10.335935 0,-5.667204 -4.66678,-10.333984 -10.33399,-10.333984 z m 0,6.86914 c 1.95433,0 3.46485,1.510518 3.46485,3.464844 0,1.954326 -1.51052,3.464844 -3.46485,3.464844 -1.95432,0 -3.46484,-1.510518 -3.46484,-3.464844 0,-1.954326 1.51052,-3.464844 3.46484,-3.464844 z m -62,110.429689 c -6.606082,0 -12.035152,5.42907 -12.035152,12.03515 0,6.60609 5.42907,12.03516 12.035152,12.03516 6.60609,0 12.03516,-5.42907 12.03516,-12.03516 0,-6.60608 -5.42907,-12.03515 -12.03516,-12.03515 z m 0,6.87109 c 2.89321,0 5.16407,2.27085 5.16407,5.16406 0,2.89322 -2.27086,5.16602 -5.16407,5.16602 -2.893206,0 -5.166012,-2.27281 -5.166012,-5.16602 0,-2.8932 2.272806,-5.16406 5.166012,-5.16406 z m 67.40039,-38.16992 c -7.6002,0 -13.83593,6.23378 -13.83593,13.83398 0,7.60021 6.23573,13.83594 13.83593,13.83594 7.6002,0 13.83399,-6.23573 13.83399,-13.83594 0,-7.6002 -6.23379,-13.83398 -13.83399,-13.83398 z m 0,6.86914 c 3.88733,0 6.96485,3.07752 6.96485,6.96484 0,3.88733 -3.07752,6.96485 -6.96485,6.96485 -3.88732,0 -6.96484,-3.07752 -6.96484,-6.96485 0,-3.88732 3.07752,-6.96484 6.96484,-6.96484 z M 332.43945,50.626953 c -1.16085,0 -2.32167,0.403701 -3.1289,1.210938 l -137.33203,129.933589 4.72265,4.99024 135.64063,-128.335939 13.98437,14.822266 -55.7207,124.312503 6.26758,2.81054 56.33007,-125.664059 0.0254,-0.06445 c 0.49327,-1.233187 0.45112,-3.693407 -0.96094,-5.105469 l 0.0703,0.07227 -16.73437,-17.736328 -0.0352,-0.03516 c -0.80724,-0.807237 -1.96805,-1.210938 -3.12891,-1.210938 z M 285.83398,0.14257812 c -0.75215,-0.19806363 -1.5791,-0.20279851 -2.38086,0.0644531 l -0.082,0.0273438 -129.18164,50.43164098 2.5,6.40039 L 284.07812,7.3339844 298.13477,22.210938 161.77734,151.27148 166.5,156.26172 304.83398,25.328125 l 0.0352,-0.0332 c 1.64942,-1.649415 1.64942,-4.307616 0,-5.957031 l -17.06641,-18.0664066 -0.0351,-0.035156 c -0.50483,-0.5048245 -1.18144,-0.89568634 -1.9336,-1.09374998 z M 229.53939,195.86605 m -67.69955,-45.53597 c -19.86092,0 -36.03515,16.17423 -36.03515,36.03515 0,19.86093 16.17423,36.03516 36.03515,36.03516 19.86092,0 36.03516,-16.17424 36.03516,-36.03516 0,-19.86091 -16.17424,-36.03515 -36.03516,-36.03515 z m 0,6.87109 c 16.14804,1e-5 29.16407,13.01602 29.16407,29.16406 0,16.14805 -13.01603,29.16602 -29.16407,29.16602 -16.14804,0 -29.16601,-13.01797 -29.16601,-29.16602 0,-16.14804 13.01797,-29.16406 29.16601,-29.16406 z m 108.09571,-103.595701 -4.99219,4.720703 29.5,31.199219 4.99219,-4.71875 -29.5,-31.201172 z M 53.199219,106.67578 c -1.179427,0.14654 -2.302143,0.7185 -3.042969,1.64453 l -0.07031,0.0879 -0.06445,0.0937 c -36.117824,51.81677 -32.19316,123.64583 12.921875,171.32422 45.103225,47.6659 116.507235,55.59976 170.267585,22.38086 2.1712,-1.30668 2.93555,-4.43017 1.21094,-6.58594 l 0.0879,0.11329 -59.30079,-80.89844 -5.54101,4.06054 57.69922,78.71485 C 176.60196,327.59365 110.19833,319.77162 67.933594,275.10547 25.661742,230.43181 21.567046,163.59467 54.289062,114.58789 l 75.470708,61.93359 4.35937,-5.31054 -77.517578,-63.61328 -0.01562,-0.0137 c -0.969648,-0.77571 -2.207292,-1.05474 -3.386719,-0.9082 z m 140.214841,90.42969 -4.34765,5.32031 79.24804,64.77539 3.18555,0 1.02734,-1.42969 c 8.41795,-11.70299 14.67933,-24.43232 18.88477,-37.66406 l -6.54688,-2.08203 c -3.64756,11.47649 -9.00166,22.49722 -15.96679,32.78125 l -75.48438,-61.70117 z m 80.75586,-87.58399 -5.66211,3.89063 c 17.53271,25.51982 24.74041,55.70586 22.01172,85.13672 l 6.83985,0.63476 c 2.87131,-30.96914 -4.72216,-62.78193 -23.18946,-89.66211 z M 157.625,50.283203 c -23.57194,0.722411 -47.02524,7.554617 -67.808594,20.572266 l -0.04102,0.02539 -0.04102,0.02734 c -0.996212,0.664142 -1.800098,1.822074 -2.007813,3.068359 -0.207714,1.246286 0.138622,2.471605 0.753907,3.394532 l 0.03906,0.05859 58.74024,80.85547 5.55859,-4.03711 L 95.582031,75.460938 C 140.37792,48.580363 197.5607,51.361909 239.56836,83.107422 L 243.71094,77.625 C 218.43474,58.523582 187.93178,49.354389 157.625,50.283203 Z m 8.94336,167.535157 -6.6582,1.69531 24.80078,97.5 6.6582,-1.69531 -24.80078,-97.5 z m -16.0625,-0.0762 -3.59961,100.40039 6.86523,0.24609 3.60157,-100.40039 -6.86719,-0.24609 z M 34.371094,149.4902 l -2.0625,6.55274 95.999996,30.19922 2.0625,-6.55274 -95.999996,-30.19922 z m -5.0625,37.3418 -0.136719,6.86914 100.500005,2 0.13671,-6.86914 -100.499996,-2 z" /><i:pgf
     id="adobe_illustrator_pgf" /></svg>