<svg xmlns="http://www.w3.org/2000/svg" viewBox="0 0 130.71 176.87"><defs><style>.cls-1{fill:none;stroke:#eee;stroke-miterlimit:10;stroke-width:5px;}</style></defs><title>who</title><g id="Layer_2" data-name="Layer 2"><g id="Layer_2-2" data-name="Layer 2"><path class="cls-1" d="M39.82,103.41c0-14.73,18.66-24.8,35.35-35.36l9.33-5.89c5.65-3.44,8.35-5.4,8.35-8.35v-14c0-3.68-1.23-4.91-4.91-4.91H42.77c-3.69,0-4.92,1.23-4.92,4.91V56.51H2.5V36.87C2.5,13.55,13.55,2.5,36.87,2.5h57c23.33,0,34.38,11.05,34.38,34.37v24.8c0,15.71-16.94,24.06-34.87,34.86l-9.82,5.9c-5.4,3.19-8.35,5.15-8.35,8.35v11H39.82Zm0,35.6H75.17v35.36H39.82Z"/></g></g></svg>