<?xml version="1.0" encoding="UTF-8" standalone="no"?>
<!-- Created with Inkscape (http://www.inkscape.org/) -->

<svg
   xmlns:dc="http://purl.org/dc/elements/1.1/"
   xmlns:cc="http://creativecommons.org/ns#"
   xmlns:rdf="http://www.w3.org/1999/02/22-rdf-syntax-ns#"
   xmlns:svg="http://www.w3.org/2000/svg"
   xmlns="http://www.w3.org/2000/svg"
   xmlns:sodipodi="http://sodipodi.sourceforge.net/DTD/sodipodi-0.dtd"
   xmlns:inkscape="http://www.inkscape.org/namespaces/inkscape"
   width="189.02098"
   height="131.88795"
   viewBox="0 0 189.02098 131.88795"
   id="svg2"
   version="1.1"
   inkscape:version="0.91 r13725"
   sodipodi:docname="photo.svg">
  <defs
     id="defs4" />
  <sodipodi:namedview
     id="base"
     pagecolor="#ffffff"
     bordercolor="#666666"
     borderopacity="1.0"
     inkscape:pageopacity="0.0"
     inkscape:pageshadow="2"
     inkscape:zoom="1.979899"
     inkscape:cx="-126.63871"
     inkscape:cy="129.37409"
     inkscape:document-units="px"
     inkscape:current-layer="layer1"
     showgrid="false"
     units="px"
     inkscape:window-width="1920"
     inkscape:window-height="1017"
     inkscape:window-x="-8"
     inkscape:window-y="-8"
     inkscape:window-maximized="1"
     fit-margin-top="0"
     fit-margin-left="0"
     fit-margin-right="0"
     fit-margin-bottom="0" />
  <metadata
     id="metadata7">
    <rdf:RDF>
      <cc:Work
         rdf:about="">
        <dc:format>image/svg+xml</dc:format>
        <dc:type
           rdf:resource="http://purl.org/dc/dcmitype/StillImage" />
        <dc:title></dc:title>
      </cc:Work>
    </rdf:RDF>
  </metadata>
  <g
     inkscape:label="Layer 1"
     inkscape:groupmode="layer"
     id="layer1"
     transform="translate(-331.2038,-66.417873)">
    <path
       id="path6486_1_"
       style="color:#000000;font-style:normal;font-variant:normal;font-weight:normal;font-stretch:normal;font-size:medium;line-height:normal;font-family:sans-serif;text-indent:0;text-align:start;text-decoration:none;text-decoration-line:none;text-decoration-style:solid;text-decoration-color:#000000;letter-spacing:normal;word-spacing:normal;text-transform:none;direction:ltr;block-progression:tb;writing-mode:lr-tb;baseline-shift:baseline;text-anchor:start;white-space:normal;clip-rule:nonzero;display:inline;overflow:visible;visibility:visible;opacity:1;isolation:auto;mix-blend-mode:normal;color-interpolation:sRGB;color-interpolation-filters:linearRGB;solid-color:#000000;solid-opacity:1;fill:#8fcff9;fill-opacity:1;fill-rule:nonzero;stroke:none;stroke-width:2.99996066;stroke-linecap:butt;stroke-linejoin:miter;stroke-miterlimit:10;stroke-dasharray:none;stroke-dashoffset:0;stroke-opacity:1;color-rendering:auto;image-rendering:auto;shape-rendering:auto;text-rendering:auto;enable-background:accumulate"
       d="m 447.73828,77.609375 c -2.10685,0.198002 -3.61468,2.145167 -3.41797,4.238281 0.19671,2.09312 2.04159,3.725347 4.14844,3.527344 2.10685,-0.198002 3.61468,-2.145167 3.41797,-4.238281 -0.19671,-2.09312 -2.04159,-3.725347 -4.14844,-3.527344 z m 0.28125,2.986328 c 0.42248,-0.0397 0.82953,0.276078 0.88086,0.822266 0.0513,0.546186 -0.29041,0.930998 -0.71289,0.970703 -0.42248,0.0397 -0.82953,-0.276078 -0.88086,-0.822266 -0.0513,-0.546186 0.29041,-0.930998 0.71289,-0.970703 z m 23.33008,-9.892578 -15.59961,1.5 -0.0215,0.002 c -0.76638,0.0958 -1.44642,0.4406 -1.98438,1.001953 -0.53757,0.560943 -0.92272,1.423576 -0.82031,2.351563 7e-5,6.78e-4 -8e-5,0.0013 0,0.002 l 0.59961,6.298828 0.004,0.02148 c 0.19343,1.547419 1.60408,2.898063 3.35157,2.705079 6.8e-4,-7.6e-5 0.001,7.6e-5 0.002,0 l 15.69922,-1.5 0.0215,-0.0039 c 1.54742,-0.193427 2.89807,-1.604073 2.70508,-3.351562 l -0.59961,-6.300781 -0.004,-0.02148 c -0.1935,-1.548025 -1.60507,-2.899349 -3.35351,-2.705078 z m 0.32031,2.982422 0.0117,0 c 0.0516,-0.0057 0.0384,0.04373 0.0449,0.0957 l 0.59766,6.267578 0,0.01172 c 0.006,0.05156 -0.0437,0.03843 -0.0957,0.04492 l -15.66797,1.496093 -0.0117,0.002 c -0.0516,0.0057 -0.0384,-0.04373 -0.0449,-0.0957 l -0.5918,-6.226562 c 0.0381,-0.03862 0.1561,-0.09349 0.18945,-0.09766 l 15.56836,-1.498047 z m -19.31445,39.628903 c -13.12789,-0.88326 -24.56595,9.11235 -25.44922,22.24024 -0.88327,13.12788 9.11235,24.56595 22.24023,25.44922 13.12789,0.88326 24.56596,-9.11235 25.44922,-22.24024 0.88327,-13.12788 -9.11235,-24.56595 -22.24023,-25.44922 z m -0.4707,6.98243 c 9.3535,0.62932 16.35588,8.64258 15.72656,17.99609 -0.62932,9.3535 -8.64064,16.35588 -17.99414,15.72656 -9.35351,-0.62932 -16.35588,-8.64259 -15.72657,-17.99609 0.62933,-9.35351 8.64064,-16.35588 17.99415,-15.72656 z m -5.44141,-28.285161 c -24.64787,2.300468 -42.81021,24.205951 -40.50977,48.853511 l 0,0.002 c 1.31524,14.0292 8.99612,26.01108 19.86329,33.25586 8.24415,5.4961 18.3781,8.23835 28.98828,7.2539 l 0.002,0 c 24.64787,-2.30047 42.81216,-24.20595 40.51172,-48.85351 -2.30047,-24.64788 -24.20791,-42.81216 -48.85547,-40.511721 z m 0.74414,7.964843 c 20.35244,-1.89956 38.245,12.936938 40.14453,33.289058 1.89956,20.35244 -12.93693,38.24696 -33.28906,40.14649 -8.78908,0.81503 -17.05326,-1.44175 -23.80859,-5.94531 -8.93233,-5.95489 -15.25065,-15.7738 -16.33594,-27.34375 l 0,-0.002 c -1.89841,-20.35161 12.9376,-38.24506 33.28906,-40.144528 z m 58.375,-20.267578 -7.90039,0.701172 0.70703,7.96875 5.49024,-0.488281 8.14453,86.736325 -5.44141,0.48243 0.70508,7.96874 7.97265,-0.70507 0.0703,-0.01 c 2.79413,-0.34926 5.23097,-2.9478 4.88086,-6.10937 l -8.59961,-91.595707 -0.008,-0.06055 c -0.34591,-2.767324 -2.9011,-5.165128 -6.02148,-4.871094 l 0,-0.01758 z m -161.40039,15.201172 -7.94336,0.703125 -0.0449,0.0059 c -3.03322,0.337023 -5.3127,3.09218 -4.92774,6.171879 l -0.0137,-0.12305 8.60352,91.63476 0.004,0.0332 c 0.33703,3.03321 3.09218,5.31269 6.17188,4.92773 l -0.14258,0.0156 7.89844,-0.70118 -0.70508,-7.96874 -5.49219,0.48632 -8.14453,-86.73437 5.44336,-0.48242 -0.70703,-7.968754 z m 162.37891,80.189454 -154.5,14.5 0.75,7.99023 154.5,-14.5 -0.75,-7.99023 z m -8.90235,-94.687501 -153.5,14.5 0.75195,7.964841 153.5,-14.499997 -0.75195,-7.964844 z m -78.39453,25.298831 -85.38086,7.97265 6.43945,69.36524 89.48438,-8.3711 -0.74414,-7.96679 -81.51367,7.62695 -4.96094,-53.43359 77.41797,-7.22657 -0.74219,-7.96679 z m 93.48242,-8.880862 -36.29297,3.482422 0.76368,7.96289 28.30664,-2.7168 4.95898,53.4336 -31.62695,3.01953 0.75976,7.96484 39.57227,-3.77929 -6.44141,-69.367192 z m -144.79687,-9.226562 -17.35157,1.613281 -0.14843,0.03711 c -0.65654,0.164135 -1.14958,0.479866 -1.57813,0.986328 -0.42854,0.506463 -0.81639,1.378948 -0.57617,2.339844 l -0.0527,-0.304687 0.51562,5.654297 0.0371,0.15039 c 0.16414,0.656538 0.47987,1.14958 0.98633,1.578125 0.50646,0.428546 1.37699,0.816396 2.33789,0.576176 l -0.29883,0.0508 17.35156,-1.613284 0.14844,-0.03711 c 0.65654,-0.164135 1.14958,-0.479866 1.57813,-0.986328 0.42854,-0.506463 0.81639,-1.378948 0.57617,-2.339844 l 0.0527,0.304687 -0.51367,-5.654297 -0.0391,-0.15039 c -0.16414,-0.656538 -0.47791,-1.14958 -0.98438,-1.578125 -0.50646,-0.428545 -1.37894,-0.816396 -2.33984,-0.576172 l 0.29883,-0.05078 z m -0.79492,4.091796 0.2832,3.121094 -14.82227,1.376953 -0.2832,-3.121093 14.82227,-1.376954 z m 106.6289,-25.267578 -0.0156,0.002 -31.31446,2.902343 0.18164,-0.0098 c -1.61047,0 -2.75852,1.127749 -3.35742,2.267578 -0.59889,1.139828 -0.8398,2.476033 -0.70508,3.890625 l 1.09961,11.699219 0,0.002 c 0.13375,1.4043 0.6163,2.661265 1.40235,3.658203 0.78604,0.996938 2.00992,1.836226 3.51172,1.720703 l 0.0156,-0.002 31.31445,-2.900391 -0.041,0.002 c 1.55514,-0.111081 2.69467,-1.227233 3.27344,-2.384765 0.57876,-1.157533 0.78022,-2.483469 0.64843,-3.867188 l -1.09961,-11.599609 0,-0.002 c -0.13374,-1.404301 -0.61629,-2.661265 -1.40234,-3.658203 -0.78605,-0.996939 -2.00992,-1.836227 -3.51172,-1.720704 z m 0.30274,3.931641 c -0.2018,0.01552 -0.12568,-0.07259 0.11328,0.230469 0.23895,0.303062 0.50601,0.896097 0.57226,1.591797 l 1.10157,11.599609 c 0.0682,0.716281 -0.0807,1.388002 -0.25196,1.730469 -0.17123,0.342467 -0.18248,0.227878 -0.0273,0.216797 l -0.0195,0 -31.29102,2.90039 c 0.2018,-0.01552 0.12567,0.07259 -0.11328,-0.230468 -0.23895,-0.303062 -0.50601,-0.896098 -0.57227,-1.591797 l -1.0996,-11.697266 0,-0.002 c -0.0653,-0.685409 0.0934,-1.348422 0.26953,-1.683594 0.073,-0.138934 0.0925,-0.157944 0.0957,-0.169922 l 31.22266,-2.894531 z" />
  </g>
</svg>
