<?xml version="1.0" encoding="utf-8"?>
<!-- Generator: Adobe Illustrator 22.0.1, SVG Export Plug-In . SVG Version: 6.00 Build 0)  -->
<svg version="1.1" xmlns="http://www.w3.org/2000/svg" xmlns:xlink="http://www.w3.org/1999/xlink" x="0px" y="0px"
	 viewBox="0 0 200 200" style="enable-background:new 0 0 200 200;" xml:space="preserve">
<style type="text/css">
	.st0{fill:#F69668;}
	.st1{fill:#F69466;}
	.st2{fill:none;stroke:#F69668;stroke-width:7.544;stroke-miterlimit:10;}
	.st3{fill:none;stroke:#F69668;stroke-width:4.0543;stroke-linecap:round;stroke-miterlimit:10;}
</style>
<g id="Layer_1">
</g>
<g id="Layer_20">
	<g>
		<g>
			<path class="st0" d="M71.1,115c-3.3,0-5.9-2.7-5.9-5.9s2.7-5.9,5.9-5.9c3.3,0,5.9,2.7,5.9,5.9S74.4,115,71.1,115z"/>
			<path class="st1" d="M71.1,104.2c2.7,0,4.9,2.2,4.9,4.9s-2.2,4.9-4.9,4.9s-4.9-2.2-4.9-4.9S68.5,104.2,71.1,104.2 M71.1,102
				c-3.9,0-7,3.1-7,7c0,3.9,3.1,7,7,7c3.9,0,7-3.1,7-7C78.2,105.2,75,102,71.1,102L71.1,102z"/>
		</g>
		<g>
			<path class="st0" d="M144.8,104c-3.3,0-5.9-2.7-5.9-5.9s2.7-5.9,5.9-5.9c3.3,0,5.9,2.7,5.9,5.9S148.1,104,144.8,104z"/>
			<path class="st1" d="M144.8,93.2c2.7,0,4.9,2.2,4.9,4.9s-2.2,4.9-4.9,4.9s-4.9-2.2-4.9-4.9S142.1,93.2,144.8,93.2 M144.8,91.1
				c-3.9,0-7,3.1-7,7c0,3.9,3.1,7,7,7c3.9,0,7-3.1,7-7C151.8,94.2,148.7,91.1,144.8,91.1L144.8,91.1z"/>
		</g>
		<g>
			<g>
				<g id="path56_10_">
					<path class="st1" d="M46.2,134.6c-4.7,0-8.7-3.2-9.8-7.7l-5-20.6l-0.9-0.2l-0.3,0l-3.3,0.5c-0.1,0-0.1,0-0.1,0
						c-0.3,0-0.5-0.2-0.5-0.4l-0.4-2.8c0-0.2,0-0.4,0.1-0.5c0.1-0.1,0.2-0.2,0.3-0.2l4.2-0.6l0-0.9c0.1-2,0.7-3.8,1.7-5.3
						c1.6-2.3,4.2-3.9,6.9-4.3l39.6-5.8c0.5-0.1,1-0.1,1.6-0.1c2.5,0,4.9,1,6.8,2.7c0.8,0.8,1.4,1.6,1.8,2.2l0.4,0.6l5.4-0.8
						l3.7-0.5l0.6-0.1l4.4-0.6l0.2-0.7c0.2-0.8,0.5-1.6,1-2.6c1.5-2.7,4.1-4.5,7.2-4.9l39.6-5.9c0.5-0.1,1-0.1,1.5-0.1
						c2.4,0,4.6,0.8,6.4,2.3c1.5,1.1,2.5,2.6,3.2,4.6l0.3,0.8l4.1-0.6c0.1,0,0.1,0,0.1,0c0.3,0,0.5,0.2,0.6,0.6l0.6,2.6
						c0,0.2-0.1,0.3-0.1,0.4c-0.1,0.1-0.2,0.2-0.3,0.2l-3.2,0.5l-1.2-0.2l0,1.3l1.2,20.5c0.3,5.3-3.2,9.7-8.5,10.6l-29.4,4.4
						c-0.7,0.1-1.5,0.2-2.3,0.2c-6.5,0-12.4-4-14.5-9.6l0-0.1l-0.1-0.2L104,94.4L99.9,95l-0.6,0.1l-4,0.6l-4.9,0.8l-0.1,19.9
						c-0.4,6.8-6.1,12.8-13.3,13.9l-29.4,4.4C47.2,134.6,46.7,134.6,46.2,134.6z M80.1,91.4c-0.2,0-0.4,0-0.6,0l-39.8,6
						c-1.2,0.2-2.4,1-3.3,2.1c-0.8,1.1-1.1,2.6-0.7,3.9l5.6,22.7c0.6,2.1,2.5,3.6,4.7,3.6c0.3,0,0.5,0,0.8-0.1l29.4-4.4
						c4.6-0.7,8.5-4.6,8.8-8.9l0.1-20.1c0.1-1.6-0.6-2.9-1.8-3.8C82.4,91.8,81.3,91.4,80.1,91.4z M114.6,111.8
						c1.4,3.6,5.3,6.1,9.5,6.1c0.5,0,1,0,1.5-0.1l29.4-4.3c2.5-0.4,4.3-2.6,4.1-5.1L157.8,85c0-1.2-0.6-2.6-1.8-3.5
						c-0.9-0.7-1.9-1.1-3.1-1.1c-0.2,0-0.5,0-0.7,0l-39.8,6c-1.5,0.3-2.7,1.1-3.4,2.3c-0.8,1.3-0.9,2.8-0.3,4.1l0.1,0.2L114.6,111.8
						z"/>
					<path class="st0" d="M152.9,76c2.1,0,4.1,0.7,5.7,2l0,0l0,0c1.3,1,2.2,2.3,2.8,4l0.6,1.7l1.8-0.3l2.8-0.4l0.4,1.6l-2.4,0.4
						l-2.4-0.4l0.2,2.7l1.2,20.5c0.3,4.7-2.9,8.7-7.6,9.4l-29.4,4.4c-0.7,0.1-1.4,0.2-2.1,0.2c-6,0-11.6-3.7-13.4-8.9l-0.1-0.3
						l-0.1-0.1L105.3,95l-0.5-1.7l-1.8,0.2l-3.1,0.4L99.3,94l0,0l0,0l-3.7,0.5l-0.3,0l-4,0.6l-1.8,0.3l0,1.9l-0.1,18.9
						c-0.4,6.4-5.7,11.9-12.4,12.9l-29.4,4.4c-0.4,0.1-0.9,0.1-1.3,0.1c-4.2,0-7.8-2.8-8.7-6.9l-4.8-19.9l-0.3-1.4l-1.4-0.2l-0.1,0
						l-0.3-0.1l-0.3,0.1l-2.8,0.4l-0.3-1.7l2.8-0.4l1.7-0.3l0.1-1.8c0.1-1.8,0.6-3.4,1.5-4.8c1.4-2.1,3.7-3.5,6.2-3.9l39.6-5.9
						c0.5-0.1,0.9-0.1,1.4-0.1c2.2,0,4.3,0.9,6.1,2.5c0.6,0.5,1.1,1.2,1.6,1.9l0.7,1.2l1.4-0.2l4.5-0.6l0.2,0l3.6-0.5l0.5-0.1l0,0
						l0,0l3.6-0.5l1.4-0.2l0.4-1.4c0.2-0.7,0.5-1.5,0.9-2.3c1.3-2.4,3.7-4,6.4-4.4l39.6-5.9C152,76.1,152.4,76,152.9,76L152.9,76
						 M107.9,93.4l5.7,18.7l0,0.1l0,0.1c1.5,4,5.8,6.7,10.5,6.7c0.5,0,1.1,0,1.6-0.1l29.5-4.3c3.1-0.5,5.2-3.2,5-6.2L158.9,85
						c0-1.6-0.8-3.2-2.2-4.4c-1.1-0.9-2.4-1.4-3.8-1.4c-0.3,0-0.6,0-0.9,0.1l-39.8,6l0,0l0,0c-1.8,0.3-3.2,1.3-4.1,2.8
						c-0.9,1.6-1.1,3.5-0.3,5.1L107.9,93.4 M34.7,103.7l5.6,22.7c0.7,2.6,3,4.4,5.7,4.4c0.3,0,0.6,0,0.9-0.1l29.5-4.4
						c5.2-0.8,9.3-5.1,9.7-9.9l0-0.1l0-0.1l0.1-20c0.1-2-0.7-3.6-2.2-4.7c-1.1-0.9-2.4-1.4-3.9-1.4c-0.2,0-0.5,0-0.7,0l0,0l0,0
						l-39.8,6c-1.5,0.2-3,1.2-4,2.5C34.5,100.3,34.2,102.1,34.7,103.7 M152.9,73.9c-0.6,0-1.1,0-1.7,0.1l-39.6,5.9
						c-3.4,0.5-6.3,2.5-8,5.5c-0.5,0.9-0.9,1.8-1.1,2.8l-3.6,0.5l-0.6,0.1l-3.7,0.5l-0.3,0L89.9,90c-0.5-0.8-1.2-1.7-2-2.4
						c-2-1.9-4.7-3-7.5-3c-0.6,0-1.1,0-1.7,0.1l-39.6,5.8c-3.1,0.4-5.9,2.2-7.7,4.8c-1.2,1.8-1.8,3.8-1.9,5.9l-3.3,0.5
						c-0.9,0.1-1.6,1-1.4,1.9l0.4,2.7c0.1,0.8,0.8,1.4,1.6,1.4c0.1,0,0.2,0,0.3,0l3.3-0.5l0.1,0l4.8,19.9c1.2,5.1,5.8,8.5,10.8,8.5
						c0.5,0,1.1,0,1.6-0.1l29.4-4.4c7.7-1.1,13.8-7.6,14.2-14.9l0.1-18.9l4-0.6l0.3,0l3.7-0.5l0.6-0.1l3.2-0.4l5.6,17.9l0.1,0.2
						c2.2,6.2,8.6,10.4,15.5,10.4c0.8,0,1.6-0.1,2.4-0.2l29.4-4.4c5.8-0.9,9.8-5.8,9.4-11.7l-1.2-20.5l0.1,0l3.3-0.5
						c0.9-0.1,1.6-1,1.4-1.9l-0.5-2.5c-0.1-0.9-0.8-1.5-1.7-1.5c-0.1,0-0.2,0-0.3,0l-3.3,0.5c-0.7-2-1.9-3.8-3.5-5
						C158,74.7,155.5,73.9,152.9,73.9L152.9,73.9z M124.1,116.8c-3.7,0-7.3-2.2-8.5-5.3l-5.8-18.8l-0.1-0.3
						c-0.5-1.1-0.4-2.2,0.2-3.1c0.6-1,1.5-1.6,2.7-1.8l39.8-6c0.2,0,0.4,0,0.6,0c0.9,0,1.7,0.3,2.4,0.9c0.8,0.7,1.4,1.7,1.4,2.8
						l1.3,23.4c0.1,2-1.3,3.6-3.2,3.9l-29.4,4.3C125,116.8,124.6,116.8,124.1,116.8L124.1,116.8z M46,128.7c-1.7,0-3.2-1.1-3.6-2.8
						l-5.6-22.8c-0.3-1-0.1-2.1,0.5-3c0.6-0.9,1.6-1.5,2.6-1.7l39.8-6c0.2,0,0.3,0,0.5,0c1,0,1.9,0.3,2.5,0.9c1,0.7,1.4,1.7,1.4,2.9
						l-0.1,20c-0.2,3.8-3.7,7.2-7.8,7.9l-29.4,4.4C46.4,128.7,46.2,128.7,46,128.7L46,128.7z"/>
				</g>
			</g>
		</g>
		<circle class="st2" cx="100.4" cy="99.6" r="95"/>
		<path class="st2" d="M6.1,88.6c-0.2-0.1,5.4-11.4,14-18.5c5-4.2,15.5-9.6,26.8-0.2c11.9,9.9,44.6-2.5,57.8-11.3
			c10.7-7.1-8,2.9,25.8-3.3c29.5-5.5,35.8-24.1,35.8-24.1"/>
		<path class="st3" d="M121.6,154.3c-3.1,7.6-18,12.2-27.3,4.1"/>
	</g>
</g>
</svg>
